# xmcd CD database file
#
# Track frame offsets:
#	150
#	12736
#	26103
#	41652
#	55416
#	72576
#	84042
#	102919
#	116380
#	132575
#	156324
#	178035
#	196637
#	212932
#	230283
#	246109
#	267786
#	287538
#	303581
#	321181
#	338285
#
# Disc length: 4738 seconds
#
# Revision: 0
# Processed by: cddbd v1.4PL0 Copyright (c) Steve Scherf et al.
# Submitted via: CDex 1.40Beta6
#
DISCID=2a128015
DTITLE=Various Artist - Various
DYEAR=2001
DGENRE=Country
TTITLE0=Tim Mc Graw - Refried Dreams
TTITLE1=Tim Mc Graw - Down On The Farm
TTITLE2=Tim Mc Graw - I Like It, I Love It
TTITLE3=Tim Mc Graw - Indian Outlaw
TTITLE4=Tim Mc Graw - Not A Moment Too Soon
TTITLE5=Tim Mc Graw - It Doesn't Get Any Countrier Than This
TTITLE6=Tim Mc Graw - Don't Take The Girl
TTITLE7=Tim Mc Graw - Forty Days And Forty Nights
TTITLE8=Tim Mc Graw - All I Want Is A Life
TTITLE9=Tim Mc Graw - When She Wakes Up
TTITLE10=Restless Heart - The Ride Of Your Life
TTITLE11=Restless Heart - Sat What's In Your Heart
TTITLE12=Restless Heart - Jbig Dreams In A Small Town
TTITLE13=Restless Heart - Jenny Come Back
TTITLE14=Restless Heart - That Rock Won't Roll
TTITLE15=Restless Heart - The Bluest Eyes In Texas
TTITLE16=Restless Heart - Fast Movin' Train
TTITLE17=Alabama - T L C A S A P
TTITLE18=Alabaa - The Cheap Seats
TTITLE19=Joe Diffie - Prop Meu Beside The Jukebox ( If I Die)
TTITLE20=Joe Diffie - Honky Tonk Attitude
EXTD=
EXTT0=
EXTT1=
EXTT2=
EXTT3=
EXTT4=
EXTT5=
EXTT6=
EXTT7=
EXTT8=
EXTT9=
EXTT10=
EXTT11=
EXTT12=
EXTT13=
EXTT14=
EXTT15=
EXTT16=
EXTT17=
EXTT18=
EXTT19=
EXTT20=
PLAYORDER=
